<svg width="360" height="360" viewBox="0 0 360 360" fill="none" xmlns="http://www.w3.org/2000/svg">
<g clip-path="url(#clip0_7_17)">
<rect width="360" height="360" fill="white"/>
<rect y="335" width="360" height="245" fill="#9189A0"/>
<rect y="302" width="360" height="33" fill="#736B83"/>
<rect y="294" width="360" height="8" fill="#DDDCDA"/>
<rect y="257" width="360" height="37" fill="#968F9F"/>
<rect y="226" width="360" height="31" fill="#52658D"/>
<rect y="-220" width="360" height="446" fill="#A2ADBF"/>
<path d="M0 120L71.5 153.5L245 79.5L312 150H360V226H0V120Z" fill="#1B2131"/>
<path d="M312 150L245 79.5L278 45V15.5L360 16V150H312Z" fill="#E3CCC4"/>
<path d="M71.5 153.5L0 120L278 15.5V45L245 79.5L71.5 153.5Z" fill="#53688A"/>
<rect x="129" y="257" width="62" height="37" fill="#BE4743"/>
<path d="M75 257L101 226L129 257V294H75V257Z" fill="#280A0A"/>
<path d="M101 226L129 257H191L163 226H101Z" fill="#D8C2B3"/>
</g>
<defs>
<clipPath id="clip0_7_17">
<rect width="360" height="360" fill="white"/>
</clipPath>
</defs>
</svg>
