<svg width="360" height="360" viewBox="0 0 360 360" fill="none" xmlns="http://www.w3.org/2000/svg">
<g clip-path="url(#clip0_7_30)">
<rect width="360" height="360" fill="white"/>
<rect y="294" width="360" height="286" fill="#62789F"/>
<rect y="281" width="360" height="13" fill="#9896AE"/>
<rect y="260" width="360" height="21" fill="#5E79A4"/>
<rect y="235" width="360" height="25" fill="#9B94A9"/>
<rect y="213" width="360" height="22" fill="#64779F"/>
<rect y="191" width="360" height="22" fill="#1F283E"/>
<rect y="166" width="360" height="25" fill="#ABA1A0"/>
<rect y="127" width="360" height="39" fill="#B7B3B0"/>
<rect y="49" width="360" height="78" fill="#B9C1C3"/>
<rect y="-220" width="360" height="269" fill="#B2C5CC"/>
<path d="M111.5 51H116.5V260H111.5V51Z" fill="#584B45"/>
<path d="M79 66H149V71H79V66Z" fill="#584B45"/>
<path d="M79 52H84V71H79V52Z" fill="#584B45"/>
<path d="M144 52H149V71H144V52Z" fill="#584B45"/>
<path d="M91.6007 70.5363L94.6292 67.5078L115.587 88.4654L112.558 91.4939L91.6007 70.5363Z" fill="#584B45"/>
<path d="M136.587 70.5363L133.558 67.5078L112.601 88.4654L115.629 91.4939L136.587 70.5363Z" fill="#584B45"/>
<path d="M213 213V166H174.609L174.5 191H150V213H213Z" fill="#DBD5B3"/>
<path d="M213 213V166L248 127L283.5 166V213H213Z" fill="#52586E"/>
<path d="M174.5 191H150L174.609 166L174.5 191Z" fill="#302126"/>
<path d="M213 166H174.609L213 127H248L213 166Z" fill="#302126"/>
</g>
<defs>
<clipPath id="clip0_7_30">
<rect width="360" height="360" fill="white"/>
</clipPath>
</defs>
</svg>
