<svg width="360" height="360" viewBox="0 0 360 360" fill="none" xmlns="http://www.w3.org/2000/svg">
<g clip-path="url(#clip0_7_46)">
<rect width="360" height="360" fill="white"/>
<rect y="290" width="360" height="290" fill="#C3C1C4"/>
<rect y="255" width="360" height="35" fill="#989299"/>
<rect y="227" width="360" height="28" fill="#A4A19D"/>
<rect y="188" width="360" height="39" fill="#C2C0C1"/>
<rect y="120" width="360" height="68" fill="#B4BEC7"/>
<rect y="5" width="360" height="115" fill="#96A5BC"/>
<rect y="-220" width="360" height="225" fill="#839ABA"/>
<rect x="156" y="255" width="28" height="35" fill="#333134"/>
<path d="M88 255L122.5 227L156 255V290H88V255Z" fill="#081023"/>
<path d="M156 255L122.5 227H150.5L184 255H156Z" fill="#CECCCD"/>
<path d="M257 270L229 290H285L257 270Z" fill="#0B0E21"/>
<path d="M285 290L257 270H274L302 290H285Z" fill="#C6C3CA"/>
</g>
<defs>
<clipPath id="clip0_7_46">
<rect width="360" height="360" fill="white"/>
</clipPath>
</defs>
</svg>
